<svg id="Слой_1" data-name="Слой 1" xmlns="http://www.w3.org/2000/svg" xmlns:xlink="http://www.w3.org/1999/xlink" viewBox="0 0 1760 526"><defs><style>.cls-1{fill:url(#Безымянный_градиент_8);}.cls-2{fill:url(#Безымянный_градиент_8-2);}.cls-3{fill:url(#Безымянный_градиент_8-3);}.cls-4{fill:url(#Безымянный_градиент_8-4);}.cls-5{fill:url(#Безымянный_градиент_8-5);}.cls-6{fill:url(#Безымянный_градиент_8-6);}.cls-7{fill:url(#Безымянный_градиент_8-7);}.cls-8{fill:url(#Безымянный_градиент_8-8);}.cls-9{fill:url(#Безымянный_градиент_8-9);}.cls-10{fill:url(#Безымянный_градиент_8-10);}.cls-11{fill:url(#Безымянный_градиент_8-11);}.cls-12{fill:url(#Безымянный_градиент_15);}.cls-13{fill:url(#Безымянный_градиент_15-2);}.cls-14{fill:url(#Безымянный_градиент_15-3);}.cls-15{fill:url(#Безымянный_градиент_15-4);}.cls-16{fill:url(#Безымянный_градиент_15-5);}.cls-17{fill:url(#Безымянный_градиент_15-6);}.cls-18{fill:url(#Безымянный_градиент_15-7);}.cls-19{fill:url(#Безымянный_градиент_15-8);}.cls-20{fill:url(#Безымянный_градиент_15-9);}.cls-21{fill:url(#Безымянный_градиент_15-10);}.cls-22{fill:url(#Безымянный_градиент_15-11);}.cls-23{fill:url(#Безымянный_градиент_15-12);}.cls-24{fill:url(#Безымянный_градиент_15-13);}.cls-25{fill:url(#Безымянный_градиент_15-14);}.cls-26{fill:url(#Безымянный_градиент_15-15);}.cls-27{fill:url(#Безымянный_градиент_15-16);}.cls-28{fill:url(#Безымянный_градиент_15-17);}.cls-29{fill:url(#Безымянный_градиент_15-18);}.cls-30{fill:url(#Безымянный_градиент_15-19);}.cls-31{fill:url(#Безымянный_градиент_15-20);}.cls-32{fill:url(#Безымянный_градиент_15-21);}.cls-33{fill:url(#Безымянный_градиент_15-22);}</style><linearGradient id="Безымянный_градиент_8" x1="266.44" y1="259.17" x2="325.73" y2="259.17" gradientUnits="userSpaceOnUse"><stop offset="0" stop-color="#815d7a"/><stop offset="1" stop-color="#6898d2"/></linearGradient><linearGradient id="Безымянный_градиент_8-2" x1="259.03" y1="259.17" x2="333.14" y2="259.17" xlink:href="#Безымянный_градиент_8"/><linearGradient id="Безымянный_градиент_8-3" x1="249.77" y1="259.17" x2="342.41" y2="259.17" xlink:href="#Безымянный_градиент_8"/><linearGradient id="Безымянный_градиент_8-4" x1="238.19" y1="259.17" x2="353.99" y2="259.17" xlink:href="#Безымянный_градиент_8"/><linearGradient id="Безымянный_градиент_8-5" x1="223.71" y1="259.17" x2="368.46" y2="259.17" xlink:href="#Безымянный_градиент_8"/><linearGradient id="Безымянный_градиент_8-6" x1="205.62" y1="259.17" x2="386.55" y2="259.17" xlink:href="#Безымянный_градиент_8"/><linearGradient id="Безымянный_градиент_8-7" x1="183" y1="259.17" x2="409.17" y2="259.17" xlink:href="#Безымянный_градиент_8"/><linearGradient id="Безымянный_градиент_8-8" x1="154.73" y1="259.17" x2="437.44" y2="259.17" xlink:href="#Безымянный_градиент_8"/><linearGradient id="Безымянный_градиент_8-9" x1="119.39" y1="259.17" x2="472.78" y2="259.17" xlink:href="#Безымянный_градиент_8"/><linearGradient id="Безымянный_градиент_8-10" x1="75.22" y1="259.17" x2="516.96" y2="259.17" xlink:href="#Безымянный_градиент_8"/><linearGradient id="Безымянный_градиент_8-11" x1="20" y1="259.17" x2="572.17" y2="259.17" xlink:href="#Безымянный_градиент_8"/><linearGradient id="Безымянный_градиент_15" x1="1434.27" y1="260.04" x2="1493.56" y2="260.04" xlink:href="#Безымянный_градиент_8"/><linearGradient id="Безымянный_градиент_15-2" x1="1426.86" y1="260.04" x2="1500.97" y2="260.04" xlink:href="#Безымянный_градиент_8"/><linearGradient id="Безымянный_градиент_15-3" x1="1417.59" y1="260.04" x2="1510.23" y2="260.04" xlink:href="#Безымянный_градиент_8"/><linearGradient id="Безымянный_градиент_15-4" x1="1406.01" y1="260.04" x2="1521.81" y2="260.04" xlink:href="#Безымянный_градиент_8"/><linearGradient id="Безымянный_градиент_15-5" x1="1391.54" y1="260.04" x2="1536.29" y2="260.04" xlink:href="#Безымянный_градиент_8"/><linearGradient id="Безымянный_градиент_15-6" x1="1373.45" y1="260.04" x2="1554.38" y2="260.04" xlink:href="#Безымянный_градиент_8"/><linearGradient id="Безымянный_градиент_15-7" x1="1350.83" y1="260.04" x2="1577" y2="260.04" xlink:href="#Безымянный_градиент_8"/><linearGradient id="Безымянный_градиент_15-8" x1="1322.56" y1="260.04" x2="1605.27" y2="260.04" xlink:href="#Безымянный_градиент_8"/><linearGradient id="Безымянный_градиент_15-9" x1="1287.22" y1="260.04" x2="1640.61" y2="260.04" xlink:href="#Безымянный_градиент_8"/><linearGradient id="Безымянный_градиент_15-10" x1="1243.04" y1="260.04" x2="1684.78" y2="260.04" xlink:href="#Безымянный_градиент_8"/><linearGradient id="Безымянный_градиент_15-11" x1="1187.83" y1="260.04" x2="1740" y2="260.04" xlink:href="#Безымянный_градиент_8"/><linearGradient id="Безымянный_градиент_15-12" x1="862.4" y1="61.46" x2="924.98" y2="61.46" xlink:href="#Безымянный_градиент_8"/><linearGradient id="Безымянный_градиент_15-13" x1="854.57" y1="67.54" x2="932.8" y2="67.54" xlink:href="#Безымянный_градиент_8"/><linearGradient id="Безымянный_градиент_15-14" x1="844.8" y1="75.15" x2="942.58" y2="75.15" xlink:href="#Безымянный_градиент_8"/><linearGradient id="Безымянный_градиент_15-15" x1="832.57" y1="84.66" x2="954.8" y2="84.66" xlink:href="#Безымянный_градиент_8"/><linearGradient id="Безымянный_градиент_15-16" x1="817.29" y1="96.55" x2="970.08" y2="96.55" xlink:href="#Безымянный_градиент_8"/><linearGradient id="Безымянный_градиент_15-17" x1="798.19" y1="111.41" x2="989.18" y2="111.41" xlink:href="#Безымянный_градиент_8"/><linearGradient id="Безымянный_градиент_15-18" x1="774.32" y1="129.99" x2="1013.06" y2="129.99" xlink:href="#Безымянный_градиент_8"/><linearGradient id="Безымянный_градиент_15-19" x1="744.48" y1="153.21" x2="1042.9" y2="153.21" xlink:href="#Безымянный_градиент_8"/><linearGradient id="Безымянный_градиент_15-20" x1="707.18" y1="182.24" x2="1080.2" y2="182.24" xlink:href="#Безымянный_градиент_8"/><linearGradient id="Безымянный_градиент_15-21" x1="660.55" y1="218.52" x2="1126.83" y2="218.52" xlink:href="#Безымянный_градиент_8"/><linearGradient id="Безымянный_градиент_15-22" x1="602.26" y1="263.88" x2="1185.11" y2="263.88" xlink:href="#Безымянный_градиент_8"/></defs><title>1231231231</title><path class="cls-1" d="M322.44,260.81h-52.7v-3.29h52.7V237.76h-56a3.3,3.3,0,0,1,3.3-3.3h56v49.41h-56a3.29,3.29,0,0,1-3.3-3.29h56Z"/><path class="cls-2" d="M329,261.23H263.15v-4.12H329V232.4H259a4.11,4.11,0,0,1,4.12-4.11h70v61.76h-70a4.12,4.12,0,0,1-4.12-4.12h70Z"/><path class="cls-3" d="M337.26,261.74H254.91v-5.15h82.35V225.71H249.77a5.14,5.14,0,0,1,5.14-5.14h87.5v77.2h-87.5a5.15,5.15,0,0,1-5.14-5.15h87.49Z"/><path class="cls-4" d="M347.55,262.38H244.62V256H347.55v-38.6H238.19a6.43,6.43,0,0,1,6.43-6.43H354v96.5H244.62a6.43,6.43,0,0,1-6.43-6.44H347.55Z"/><path class="cls-5" d="M360.42,263.19H231.75v-8H360.42V206.9H223.71a8,8,0,0,1,8-8.05H368.46V319.48H231.75a8,8,0,0,1-8-8H360.42Z"/><path class="cls-6" d="M376.5,264.19H215.67V254.14H376.5V193.83H205.62a10.05,10.05,0,0,1,10-10.05H386.55V334.56H215.67a10.05,10.05,0,0,1-10-10.05H376.5Z"/><path class="cls-7" d="M396.61,265.45h-201V252.88h201V177.49H183a12.56,12.56,0,0,1,12.57-12.56h213.6V353.41H195.57A12.57,12.57,0,0,1,183,340.84H396.61Z"/><path class="cls-8" d="M421.74,267H170.44V251.31h251.3V157.08h-267a15.71,15.71,0,0,1,15.71-15.71h267V377h-267a15.7,15.7,0,0,1-15.71-15.7h267Z"/><path class="cls-9" d="M453.15,269H139V249.35H453.15V131.55H119.39A19.63,19.63,0,0,1,139,111.92H472.78V406.41H139a19.63,19.63,0,0,1-19.63-19.63H453.15Z"/><path class="cls-10" d="M492.41,271.44H99.76V246.9H492.41V99.65H75.22A24.54,24.54,0,0,1,99.76,75.11H517V443.23H99.76a24.54,24.54,0,0,1-24.54-24.55H492.41Z"/><path class="cls-11" d="M541.5,274.5H50.68V243.83H541.5V59.77H20A30.68,30.68,0,0,1,50.68,29.09H572.17V489.24H50.68A30.67,30.67,0,0,1,20,458.56H541.5Z"/><path class="cls-12" d="M1447.44,284.75q-13.17,0-13.17-13.18V248.51q0-13.17,13.17-13.17h32.94q13.18,0,13.18,13.17v23.06q0,13.17-13.18,13.18Zm-9.88-13.18q0,9.89,9.88,9.88h32.94q9.88,0,9.88-9.88V248.51q0-9.87-9.88-9.88h-32.94q-9.87,0-9.88,9.88Z"/><path class="cls-13" d="M1443.33,290.92q-16.47,0-16.47-16.47V245.63q0-16.47,16.47-16.47h41.17q16.47,0,16.47,16.47v28.82q0,16.47-16.47,16.47ZM1431,274.45q0,12.36,12.35,12.35h41.17q12.35,0,12.35-12.35V245.63q0-12.34-12.35-12.35h-41.17q-12.36,0-12.35,12.35Z"/><path class="cls-14" d="M1438.18,298.64q-20.58,0-20.59-20.59V242q0-20.59,20.59-20.59h51.47q20.58,0,20.58,20.59v36q0,20.59-20.58,20.59Zm-15.44-20.59q0,15.45,15.44,15.44h51.47q15.43,0,15.44-15.44V242q0-15.45-15.44-15.44h-51.47q-15.43,0-15.44,15.44Z"/><path class="cls-15" d="M1431.75,308.29q-25.74,0-25.74-25.73v-45q0-25.72,25.74-25.73h64.33q25.73,0,25.73,25.73v45q0,25.72-25.73,25.73Zm-19.3-25.73q0,19.29,19.3,19.3h64.33q19.31,0,19.3-19.3v-45q0-19.29-19.3-19.3h-64.33q-19.3,0-19.3,19.3Z"/><path class="cls-16" d="M1423.71,320.35q-32.18,0-32.17-32.16V231.9q0-32.18,32.17-32.17h80.41q32.16,0,32.17,32.17v56.29q0,32.16-32.17,32.16Zm-24.13-32.16q0,24.12,24.13,24.12h80.41q24.12,0,24.13-24.12V231.9q0-24.14-24.13-24.13h-80.41q-24.14,0-24.13,24.13Z"/><path class="cls-17" d="M1413.65,335.43q-40.2,0-40.2-40.21V224.86q0-40.22,40.2-40.21h100.52q40.21,0,40.21,40.21v70.36q0,40.21-40.21,40.21Zm-30.15-40.21q0,30.16,30.15,30.16h100.52q30.16,0,30.16-30.16V224.86q0-30.15-30.16-30.16H1413.65q-30.15,0-30.15,30.16Z"/><path class="cls-18" d="M1401.09,354.28q-50.27,0-50.26-50.26v-88q0-50.25,50.26-50.26h125.65q50.25,0,50.26,50.26v88q0,50.26-50.26,50.26ZM1363.39,304q0,37.69,37.7,37.69h125.65q37.69,0,37.69-37.69v-88q0-37.69-37.69-37.69H1401.09q-37.69,0-37.7,37.69Z"/><path class="cls-19" d="M1385.38,377.84q-62.82,0-62.82-62.83V205.07q0-62.82,62.82-62.83h157.06q62.83,0,62.83,62.83V315q0,62.83-62.83,62.83ZM1338.26,315q0,47.13,47.12,47.12h157.06q47.13,0,47.12-47.12V205.07q0-47.12-47.12-47.12H1385.38q-47.12,0-47.12,47.12Z"/><path class="cls-20" d="M1365.75,407.29q-78.54,0-78.53-78.53V191.33q0-78.54,78.53-78.54h196.33q78.53,0,78.53,78.54V328.76q0,78.53-78.53,78.53Zm-58.9-78.53q0,58.89,58.9,58.9h196.33q58.89,0,58.9-58.9V191.33q0-58.9-58.9-58.9H1365.75q-58.9,0-58.9,58.9Z"/><path class="cls-21" d="M1341.21,444.1q-98.18,0-98.17-98.17V174.15Q1243,76,1341.21,76h245.41q98.16,0,98.16,98.17V345.93q0,98.18-98.16,98.17Zm-73.62-98.17q0,73.63,73.62,73.63h245.41q73.62,0,73.62-73.63V174.15q0-73.64-73.62-73.63H1341.21q-73.62,0-73.62,73.63Z"/><path class="cls-22" d="M1310.53,490.11q-122.71,0-122.7-122.7V152.67q0-122.7,122.7-122.7h306.76Q1740,30,1740,152.67V367.41q0,122.7-122.71,122.7Zm-92-122.7q0,92,92,92h306.76q92,0,92-92V152.67q0-92-92-92H1310.53q-92,0-92,92Z"/><path class="cls-23" d="M893.69,86.57,862.4,36.34h3.85l27.44,44.07,27.44-44.07H925Z"/><path class="cls-24" d="M893.69,98.94,854.57,36.15h4.82l34.3,55.09L928,36.15h4.81Z"/><path class="cls-25" d="M893.69,114.39,844.8,35.91h6l42.87,68.86,42.87-68.86h6Z"/><path class="cls-26" d="M893.69,133.72,832.57,35.61h7.53l53.59,86.08,53.59-86.08h7.52Z"/><path class="cls-27" d="M893.69,157.87,817.29,35.24h9.41l67,107.59,67-107.59h9.41Z"/><path class="cls-28" d="M893.69,188.06,798.19,34.77H810l83.74,134.49L977.42,34.77h11.76Z"/><path class="cls-29" d="M893.69,225.8,774.32,34.18H789L893.69,202.3,998.35,34.18h14.71Z"/><path class="cls-30" d="M893.69,273,744.48,33.45h18.37L893.69,243.6,1024.52,33.45h18.38Z"/><path class="cls-31" d="M893.69,331.94,707.18,32.54h23L893.69,295.23,1057.23,32.54h23Z"/><path class="cls-32" d="M893.69,405.65,660.55,31.4h28.71L893.69,359.76,1098.11,31.4h28.72Z"/><path class="cls-33" d="M893.69,497.78,602.26,30h35.89L893.69,440.42,1149.22,30h35.89Z"/></svg>