<svg width="1720" height="1766" viewBox="0 0 1720 1766" fill="none" xmlns="http://www.w3.org/2000/svg">
<path opacity="0.5" d="M614.123 762.101L609.657 752.286L606.917 721.774L608.972 683.914L609.328 638.342L605.218 611.364L597.683 589.966L594.258 568.26L581.572 527.231L576.092 507.965L571.653 478.518L567.872 460.626L558.966 438.191L549.376 416.821L545.623 412.25L544.938 388.076L545.623 371.586L544.253 347.412L531.566 319.704L505.536 294.829L489.096 288.519L463.422 271.328L442.186 252.061L416.841 238.039L395.606 229.963L383.604 226.457L382.234 211.033L381.906 195.973L386.016 184.054L388.399 177.38L388.756 158.45L399.716 148.298L403.141 138.482L402.785 119.889L402.456 86.9371L391.496 81.6928L389.77 55.3873L379.851 34.3542L365.465 19.6309L350.039 10.18L336.339 2.80442L316.474 0L293.183 3.50553L278.469 11.9188L261.673 31.5497L252.768 45.5718L247.288 64.5017V102.726L243.534 112.177V121.992L247.973 139.52L255.508 144.091L263.728 150.037L269.564 159.515L268.194 179.146L271.482 198.637L278.332 208.929L266.002 224.354L239.068 236.974L212.572 247.715L148.647 275.31L125.356 289.781L111.656 302.401L96.1203 322.985L86.0918 345.421L81.9817 369.707L79.6801 387.01L69.6516 405.716L56.8557 434.209L50.0056 454.793L42.6897 479.079L31.7296 516.49L25.8111 537.972C25.8111 537.972 24.4411 552.948 23.9753 554.35C23.5095 555.752 18.961 574.43 18.0294 576.785C17.0978 579.141 12.6863 632.397 12.6863 632.397L10.9601 657.272V675.866L21.7011 696.422L23.0711 713.725L17.1252 753.464L13.0152 774.946L12.6863 796.456L12.1657 810.814C12.1657 810.814 6.16507 821.864 5.64447 822.228C5.12386 822.593 1.89062 833.782 1.89062 833.782C2.15107 838.977 2.15107 844.181 1.89062 849.375C1.37002 849.908 0 863.593 0 863.593L4.46625 877.083L10.2751 883.926L19.1802 898.116L28.9347 907.931L34.2504 913.54L38.7166 921.084L42.6349 923.187L45.8955 919.486L46.9367 913.372L45.8955 907.399L54.965 913.372L61.3219 912.671L59.0751 904.762L51.7318 901.453L44.3611 895.648L43.3199 881.458L46.7449 864.463L52.91 851.142L65.2402 838.157L72.967 847.468L70.227 859.387L78.4471 872.175L85.2972 869.202L89.4072 861.658L86.4754 842.56L82.0366 824.332L79.9815 804L71.0764 789.781L60.2807 778.395L61.3219 767.71L62.8015 735.684L65.5416 715.127L65.98 691.29C65.98 691.29 71.46 680.549 71.9258 679.147C72.3916 677.744 77.4059 661.367 77.4059 661.367L79.6801 641.736L81.5159 611.841L80.1459 591.733L81.0501 576.785L90.2018 562.286L112.122 529.11L123.986 508.526L128.096 489.371L131.302 476.752L135.412 465.057L142.701 455.242L152.291 468.815L161.443 486.567L171.033 501.515L177.883 514.135L186.541 532.84L196.131 548.741L199.337 561.361L200.707 582.394L202.077 606.232L201.612 629.116L193.391 656.711L184.267 674.94L169.663 713.248C169.663 713.248 161.881 730.552 160.977 732.431C160.073 734.31 154.127 768.411 154.127 768.411L155.031 799.26L152.291 859.555V886.197L155.497 914.241C155.497 914.241 165.087 941.809 165.553 943.688C166.019 945.567 179.253 985.754 179.253 985.754L185.171 1011.92C185.171 1011.92 185.637 1034.83 185.637 1036.23C185.637 1037.64 191.117 1062.4 191.117 1062.4L189.747 1097.45C189.747 1097.45 188.843 1126.45 188.843 1128.3C188.843 1130.15 188.377 1154.5 188.377 1154.5L194.761 1188.15L203.447 1212.44L219.888 1262.47L235.424 1300.77L250.411 1337.23L266.468 1375.57L270.578 1395.2L276.058 1421.36L289.758 1452.69L298.444 1474.65L301.623 1507.38C301.623 1507.38 300.253 1528.89 299.814 1532.14C299.376 1535.39 298.883 1572.35 298.883 1572.35L297.074 1584.97L307.103 1599.92L320.803 1614.87H331.763L341.819 1608.34L345.463 1590.58L350.943 1550.37L354.615 1513.91V1478.41L363.739 1465.31V1455.02L356.423 1442.87L341.819 1418.56L335.435 1404.54V1386.79L363.739 1292.36L378.344 1255.9C378.344 1255.9 401.195 1197.96 401.195 1195.16C401.195 1192.36 406.676 1164.31 406.676 1164.31V1092.32L419.444 1050.09L423.116 986.679C423.116 986.679 414.896 994.167 423.116 972.657L431.336 951.176C431.336 951.176 432.24 961.44 442.296 935.274L452.324 909.109L459.64 882.916L465.12 833.39V746.453L459.64 727.747L449.584 702.508L443.2 684.756L438.624 666.05L437.72 641.736V621.179L433.144 602.474L429.5 583.796C429.5 583.796 426.76 582.843 425.856 570.7C424.952 558.557 421.28 571.625 424.924 558.557L428.596 545.46L435.884 525.829C435.884 525.829 436.816 523.025 439.556 509.002C442.296 494.98 437.72 507.123 442.296 494.98L446.844 482.837C446.844 482.837 443.2 481.884 452.324 474.424C461.449 466.964 453.256 476.275 461.476 466.936C466.392 461.339 471.907 456.325 477.916 451.989L485.205 475.349L489.781 500.589L496.165 531.438L501.645 551.069V566.97L506.221 601.548L514.441 630.518L525.401 660.441L537.265 683.802L558.281 711.846L567.406 721.213V742.695L571.077 767.935L574.722 791.324L569.242 809.076L563.762 823.098L551.897 840.85L546.993 861.995L537.731 877.784V888.3L540.827 891.806L547.321 890.039L554.171 884.795L557.953 877.419L560.693 867.968L567.872 863.762L572.667 863.061L577.133 862.696L579.188 870.408L577.133 881.99L579.188 894.947L570.283 905.127L559.323 914.942L556.226 927.198L555.898 938.78L564.118 939.481L573.352 929.301L582.613 921.953L589.792 917.382L605.218 896.349L611.712 878.485V851.142L614.452 829.744V800.298L617.192 782.77L614.123 762.101ZM321.954 1102.14C318.857 1110.1 316.474 1108.95 313.049 1118.26C308.144 1131.02 308.939 1142.1 307.569 1142.1C306.719 1142.1 306.336 1137.84 305.185 1132.82C303.304 1125.26 300.418 1118 296.608 1111.25C288.635 1095.32 279.1 1083.52 279.483 1083.21C279.867 1082.9 282.771 1088 284.278 1087.41C286.498 1086.54 281.538 1075.1 282.223 1060.07C282.744 1048.99 285.731 1048.85 288.388 1032.03C289.347 1025.97 288.882 1026.42 290.443 1006.79C291.649 991.756 292.8 980.454 293.183 976.64C294.773 961.299 294.992 962.618 296.608 947.193C298.335 930.872 298.252 927.731 300.033 913.54C301.951 898.06 301.431 906.585 303.459 891.806C304.911 881.065 305.349 875.4 307.569 874.979C309.788 874.559 311.953 878.541 313.049 881.289C314.449 885.1 314.688 889.256 313.734 893.208C312.61 898.621 312.994 906.641 313.734 922.655C314.316 933.031 315.69 943.346 317.844 953.503C319.239 958.781 320.157 964.179 320.584 969.629C320.856 975.972 320.396 982.326 319.214 988.558C317.35 999.355 315.405 1000.34 315.104 1008.19C314.987 1012.9 315.447 1017.61 316.474 1022.21C318.364 1032.48 320.748 1035.78 322.639 1043.24C323.653 1047.2 323.79 1054.1 324.009 1067.78C324.447 1094.51 323.324 1098.83 321.954 1102.14Z" fill="url(#paint0_linear)"/>
<path opacity="0.5" d="M1716.9 787.033L1712.46 777.217L1709.72 746.705L1711.78 708.845L1712.11 663.273L1708 636.295L1700.46 614.897L1697.04 593.163L1684.38 552.162L1678.9 532.868L1674.43 503.421L1670.68 485.557L1661.77 463.122L1652.18 441.724L1648.4 437.181L1647.72 412.979L1648.4 396.517L1647.03 372.315L1634.37 344.635L1608.4 319.704L1591.96 313.394L1566.26 296.231L1545.02 276.936L1519.68 262.914L1498.44 254.866L1486.47 251.36L1485.1 235.936L1484.74 220.848L1488.85 208.929L1491.26 202.283L1491.59 183.353L1502.55 173.173L1505.98 163.357L1505.65 144.792L1505.29 111.84L1494.33 106.568L1492.63 80.2904L1482.69 59.2572L1468.3 44.534L1452.9 35.0551L1439.2 27.7075L1419.34 24.9031L1396.05 28.4086L1381.3 36.8219L1364.54 56.4528L1355.63 70.4749L1350.15 89.4048V127.629L1346.37 137.108V146.923L1350.84 164.451L1358.37 168.994L1366.59 174.968L1372.4 184.419L1371.03 204.049L1374.34 223.68L1381.19 233.973L1368.86 249.397L1341.93 262.017L1315.43 272.758L1251.51 300.353L1228.22 314.824L1214.52 327.444L1198.98 348.028L1188.95 370.464L1184.84 394.75L1182.54 412.053L1172.51 430.759L1159.72 459.252L1152.87 479.836L1145.55 504.122L1134.59 541.534L1128.67 563.015C1128.67 563.015 1127.3 577.991 1126.84 579.393C1126.37 580.795 1121.82 599.473 1120.89 601.829C1119.96 604.184 1115.41 657.44 1115.41 657.44L1113.71 682.315V700.909L1124.45 721.465L1125.82 738.768L1119.88 778.507L1115.77 799.989L1115.41 821.499L1114.92 835.857C1114.92 835.857 1108.92 846.907 1108.4 847.271C1107.88 847.636 1104.64 858.826 1104.64 858.826C1104.64 858.826 1105.14 873.913 1104.64 874.418C1104.15 874.923 1102.75 888.637 1102.75 888.637L1107.19 902.126L1113.03 908.969L1121.93 923.159L1131.69 932.975L1137 938.583L1141.44 946.127L1145.39 948.231L1148.65 944.529L1149.66 938.415L1148.65 932.442L1157.72 938.415L1164.05 937.714L1161.83 929.806L1154.46 926.496L1147.11 920.691L1146.07 906.501L1149.5 889.506L1155.66 876.185L1167.99 863.201L1175.69 872.511L1172.95 884.43L1181.17 897.218L1188.02 894.245L1192.13 886.702L1189.17 867.491L1184.73 849.263L1182.68 828.931L1173.77 814.712L1162.98 803.326L1163.99 792.641L1165.5 760.615L1168.24 740.058L1168.68 716.221C1168.68 716.221 1174.16 705.48 1174.62 704.078C1175.09 702.676 1180.1 686.298 1180.1 686.298L1182.38 666.667L1184.21 636.772L1182.84 616.664L1183.75 601.716L1192.9 587.218L1214.82 554.041L1226.68 533.457L1230.79 514.303L1234 501.683L1238.11 489.988L1245.4 480.173L1254.99 493.746L1264.14 511.498L1273.73 526.446L1280.58 539.066L1289.24 557.771L1298.83 573.672L1302.04 586.292L1303.41 607.325L1304.78 631.163L1304.31 654.047L1296.09 681.642L1286.97 699.871L1272.36 738.179C1272.36 738.179 1264.58 755.483 1263.68 757.362C1262.77 759.241 1256.82 793.342 1256.82 793.342L1257.73 824.191L1254.99 884.486V911.128L1258.19 939.172C1258.19 939.172 1267.79 966.74 1268.25 968.619C1268.72 970.498 1281.95 1010.69 1281.95 1010.69L1287.87 1036.85C1287.87 1036.85 1288.34 1059.76 1288.34 1061.16C1288.34 1062.57 1293.82 1087.33 1293.82 1087.33L1292.45 1122.39C1292.45 1122.39 1291.54 1151.38 1291.54 1153.23C1291.54 1155.08 1291.08 1179.43 1291.08 1179.43L1297.46 1213.08L1306.15 1237.37L1322.59 1287.4L1338.12 1325.71L1353.11 1362.16L1369.17 1400.5L1373.28 1420.13L1378.76 1446.3L1392.46 1477.62L1401.14 1499.58L1404.32 1532.31C1404.32 1532.31 1402.95 1553.82 1402.51 1557.07C1402.07 1560.32 1401.58 1597.29 1401.58 1597.29L1399.77 1609.91L1409.8 1624.85L1423.5 1639.8H1434.46L1444.52 1633.27L1448.16 1615.51L1453.64 1575.3L1457.31 1538.84V1503.34L1466.44 1490.24V1479.95L1459.12 1467.81L1444.52 1443.49L1438.13 1429.47V1411.72L1466.44 1317.29L1481.04 1280.83C1481.04 1280.83 1503.89 1222.9 1503.89 1220.09C1503.89 1217.29 1509.37 1189.24 1509.37 1189.24V1117.25L1522.14 1075.02L1525.81 1011.61C1525.81 1011.61 1517.59 1019.1 1525.81 997.588L1534.03 976.107C1534.03 976.107 1534.94 986.371 1544.99 960.206L1555.02 934.04L1562.34 907.847L1567.82 858.321V771.384L1562.34 752.678L1552.28 727.439L1545.9 709.687L1541.32 690.981L1540.42 666.667V646.11L1535.84 627.405L1532.2 608.727C1532.2 608.727 1529.46 607.774 1528.55 595.631C1527.65 583.488 1523.98 596.556 1527.62 583.488L1531.29 570.391L1538.58 550.76C1538.58 550.76 1539.51 547.956 1542.25 533.934C1544.99 519.911 1540.42 532.055 1544.99 519.911L1549.54 507.768C1549.54 507.768 1545.9 506.815 1555.02 499.355C1564.15 491.895 1555.95 501.206 1564.17 491.867C1569.09 486.27 1574.6 481.256 1580.61 476.92L1587.9 500.28L1592.48 525.52L1598.86 556.369L1604.34 576V591.901L1608.92 626.479L1617.14 655.449L1628.1 685.372L1639.96 708.733L1660.98 736.777L1670.1 746.144V767.626L1673.78 792.866L1677.42 816.255L1671.94 834.007L1666.46 848.029L1654.6 865.781L1649.66 886.926L1640.43 902.715V913.231L1643.5 916.737L1650.02 914.97L1656.87 909.726L1660.62 902.35L1663.36 892.899L1670.57 888.693L1675.36 887.992L1679.8 887.627L1681.86 895.339L1679.8 906.922L1681.86 919.878L1672.95 930.058L1661.99 939.873L1658.92 952.129L1658.57 963.711L1666.79 964.412L1676.05 954.232L1685.28 946.885L1692.49 942.313L1707.89 921.28L1714.41 903.416V876.073L1717.15 854.675V825.229L1719.89 807.701L1716.9 787.033ZM1424.82 1127.07C1421.72 1135.03 1419.34 1133.88 1415.91 1143.19C1411.01 1155.95 1411.8 1167.03 1410.43 1167.03C1409.58 1167.03 1409.2 1162.77 1408.05 1157.75C1406.17 1150.19 1403.29 1142.93 1399.47 1136.18C1391.5 1120.25 1381.93 1108.45 1382.35 1108.14C1382.76 1107.83 1385.63 1112.93 1387.14 1112.35C1389.33 1111.48 1384.4 1100.03 1385.09 1085C1385.61 1073.92 1388.59 1073.78 1391.25 1056.96C1392.21 1050.9 1391.74 1051.35 1393.31 1031.72C1394.51 1016.69 1395.63 1005.38 1396.05 1001.57C1397.64 986.203 1397.85 987.549 1399.47 972.124C1401.2 955.803 1401.12 952.634 1402.9 938.471C1404.81 922.991 1404.29 931.516 1406.32 916.737C1407.77 905.996 1408.21 900.303 1410.43 899.91C1412.65 899.518 1414.82 903.472 1415.91 906.22C1417.31 910.031 1417.55 914.187 1416.6 918.139C1415.47 923.552 1415.83 931.572 1416.6 947.586C1417.18 957.962 1418.55 968.277 1420.71 978.434C1422.1 983.711 1423.02 989.109 1423.45 994.56C1423.72 1000.9 1423.26 1007.26 1422.08 1013.49C1420.21 1024.29 1418.27 1025.24 1417.97 1033.12C1417.85 1037.83 1418.31 1042.55 1419.34 1047.14C1421.23 1057.41 1423.58 1060.72 1425.5 1068.18C1426.52 1072.13 1426.65 1079.03 1426.87 1092.71C1427.25 1119.44 1426.05 1123.76 1424.82 1127.07Z" fill="url(#paint1_linear)"/>
<path opacity="0.7" d="M1359.36 913.231L1354.92 903.416L1352.18 872.904L1354.23 835.044L1354.56 789.472L1350.45 762.494L1342.92 741.096L1339.49 719.362L1326.83 678.361L1321.35 659.067L1316.89 629.62L1313.13 611.756L1304.23 589.321L1294.64 567.923L1290.86 563.38L1290.17 539.178L1290.86 522.716L1289.49 498.514L1276.85 470.834L1250.82 445.931L1234.38 439.621L1208.68 422.458L1187.45 403.163L1162.1 389.141L1140.87 381.093L1128.89 377.587L1127.52 362.163L1127.17 347.075L1131.28 335.156L1133.69 328.51L1134.02 309.58L1144.98 299.4L1148.4 289.584L1148.07 271.019L1147.72 238.067L1136.76 232.795L1135.06 206.517L1125.11 185.484L1110.73 170.761L1095.33 161.282L1081.63 153.934L1061.76 151.13L1038.47 154.636L1023.73 163.049L1006.96 182.68L998.056 196.702L992.576 215.632V253.828L988.795 263.307V273.122L993.261 290.65L1000.8 295.193L1009.02 301.167L1014.83 310.617L1013.46 330.248L1016.77 349.879L1023.62 360.172L1011.29 375.596L984.356 388.216L957.86 398.957L893.935 426.524L870.645 441.023L856.945 453.643L841.409 474.199L831.353 496.635L827.243 520.949L824.968 538.252L814.913 556.93L802.144 585.451L795.294 606.007L787.978 630.321L777.018 667.704L771.072 689.214C771.072 689.214 769.702 704.162 769.264 705.564C768.825 706.966 764.222 725.672 763.318 727.999C762.413 730.327 757.838 783.639 757.838 783.639L756.139 808.514V827.108L766.852 847.664L768.222 864.967L762.304 904.678L758.194 926.188L757.838 947.698L757.317 962.056C757.317 962.056 751.344 973.106 750.823 973.442C750.303 973.779 747.042 985.025 747.042 985.025C747.302 990.219 747.302 995.423 747.042 1000.62C746.549 1001.15 745.179 1014.81 745.179 1014.81L749.618 1028.32L755.454 1035.14L764.359 1049.36L774.113 1059.17L779.429 1064.78L783.868 1072.3L787.814 1074.4L791.074 1070.73L792.088 1064.59L791.074 1058.64L800.144 1064.59L806.473 1063.88L804.254 1056L796.883 1052.67L789.512 1046.89L788.499 1032.7L791.924 1015.7L798.089 1002.38L810.419 989.399L818.118 998.682L815.378 1010.6L823.598 1023.42L830.448 1020.42L834.559 1012.9L831.654 993.774L827.188 975.546L825.133 955.214L816.228 941.023L805.569 929.525L806.583 918.84L808.062 886.814L810.803 866.257L811.268 842.42C811.268 842.42 816.748 831.651 817.214 830.249L822.694 812.497L824.968 792.866L826.804 762.942L825.434 742.863L826.338 727.887L835.463 713.416L857.383 680.212L869.275 659.656L873.385 640.502L876.563 627.882L880.673 616.187L887.989 606.372L897.579 619.917L906.704 637.697L916.294 652.645L923.144 665.265L931.83 683.97L941.42 699.843L944.626 712.463L945.996 733.496L947.366 757.334L946.9 780.246L938.68 807.813L929.555 826.042L914.924 864.378C914.924 864.378 907.169 881.682 906.265 883.533C905.361 885.383 899.415 919.541 899.415 919.541L900.319 950.39L897.579 1010.69V1037.33L900.785 1065.37C900.785 1065.37 910.375 1092.94 910.814 1094.82C911.252 1096.7 924.514 1136.88 924.514 1136.88L930.46 1163.05C930.46 1163.05 930.925 1185.96 930.925 1187.36C930.925 1188.77 936.406 1213.53 936.406 1213.53L935.036 1248.58C935.036 1248.58 934.104 1277.55 934.104 1279.43C934.104 1281.31 933.666 1305.6 933.666 1305.6L940.05 1339.25L948.736 1363.57L965.176 1413.57L980.684 1451.9L995.672 1488.36L1011.76 1526.7L1015.87 1546.33L1021.35 1572.49L1035.05 1603.82L1043.71 1625.78L1046.91 1658.51C1046.91 1658.51 1045.54 1679.99 1045.08 1683.27C1044.61 1686.55 1044.17 1723.46 1044.17 1723.46L1042.34 1736.08L1052.39 1751.05L1066.09 1766H1077.05L1087.11 1759.47L1090.75 1741.69L1096.23 1701.5L1099.88 1665.04V1629.51L1109.03 1616.44V1606.15L1101.71 1594L1087.11 1569.69L1080.7 1555.67V1537.92L1109.03 1443.49L1123.63 1407.03C1123.63 1407.03 1146.46 1349.07 1146.46 1346.26C1146.46 1343.46 1151.94 1315.41 1151.94 1315.41V1243.45L1164.73 1201.22L1168.38 1137.81C1168.38 1137.81 1160.16 1145.3 1168.38 1123.79L1176.6 1102.28C1176.6 1102.28 1177.53 1112.57 1187.56 1086.4L1197.61 1060.21L1204.93 1034.05L1210.41 984.492V897.555L1204.93 878.877L1194.87 853.638L1188.49 835.857L1183.91 817.18L1183.01 792.866V772.309L1178.43 753.604L1174.79 734.898C1174.79 734.898 1172.05 733.973 1171.12 721.83C1170.19 709.687 1166.57 722.755 1170.21 709.659L1173.86 696.59L1181.17 676.959C1181.17 676.959 1182.08 674.155 1184.82 660.132C1187.56 646.11 1183.01 658.253 1187.56 646.11L1192.13 633.939C1192.13 633.939 1188.49 633.014 1197.61 625.526C1206.74 618.038 1198.52 627.405 1206.74 618.066C1211.65 612.456 1217.16 607.432 1223.18 603.091L1230.49 626.479L1235.07 651.719L1241.45 682.568L1246.93 702.199V718.072L1251.51 752.678L1259.73 781.648L1270.69 811.571L1282.55 834.932L1303.57 862.976L1312.69 872.315V893.825L1316.34 919.065L1320.01 942.425L1314.53 960.206L1309.05 974.228L1297.16 991.98L1292.25 1013.12L1283.02 1028.91V1039.43L1286.09 1042.94L1292.61 1041.17L1299.46 1035.92L1303.21 1028.55L1305.95 1019.1L1313.16 1014.89L1317.95 1014.19L1322.39 1013.83L1324.45 1021.54L1322.39 1033.12L1324.45 1046.08L1315.54 1056.26L1304.58 1066.07L1301.51 1078.33L1301.16 1089.91L1309.38 1090.61L1318.64 1080.43L1327.87 1073.08L1335.08 1068.51L1350.48 1047.48L1357 1029.61V1002.27L1359.74 980.874V951.428L1362.48 933.9L1359.36 913.231ZM1067.21 1253.27C1064.09 1261.23 1061.87 1260.05 1058.31 1269.39C1053.4 1282.15 1054.17 1293.2 1052.83 1293.23C1051.98 1293.23 1051.57 1288.97 1050.45 1283.95C1048.57 1276.39 1045.68 1269.13 1041.87 1262.38C1033.87 1246.45 1024.33 1234.62 1024.74 1234.34C1025.16 1234.06 1028.03 1239.13 1029.54 1238.54C1031.73 1237.67 1026.8 1226.23 1027.48 1211.2C1028 1199.98 1030.99 1199.98 1033.65 1183.16C1034.58 1177.07 1034.12 1177.55 1035.7 1157.92C1036.88 1142.86 1038.03 1131.56 1038.44 1127.77C1040.01 1112.4 1040.23 1113.75 1041.87 1098.32C1043.57 1082 1043.51 1078.83 1045.29 1064.67C1047.21 1049.19 1046.69 1057.69 1048.72 1042.94C1050.17 1032.2 1050.61 1026.5 1052.83 1026.11C1055.05 1025.72 1057.19 1029.67 1058.31 1032.42C1059.69 1036.23 1059.93 1040.38 1058.99 1044.34C1057.84 1049.75 1058.23 1057.77 1058.99 1073.78C1059.57 1084.16 1060.94 1094.48 1063.1 1104.63C1064.49 1109.91 1065.41 1115.31 1065.84 1120.76C1066.1 1127.1 1065.64 1133.45 1064.47 1139.69C1062.58 1150.49 1060.67 1151.44 1060.36 1159.32C1060.25 1164.03 1060.71 1168.74 1061.73 1173.34C1063.6 1183.61 1065.98 1186.91 1067.9 1194.37C1068.89 1198.3 1069.02 1205.23 1069.27 1218.91C1069.71 1245.64 1068.61 1249.96 1067.21 1253.27Z" fill="url(#paint2_linear)"/>
<path opacity="0.7" d="M922.705 892.507L918.267 882.692L915.527 852.179L917.582 814.32L917.91 768.748L913.8 741.769L906.265 720.372L902.84 698.637L890.181 657.637L884.701 638.342L880.235 608.896L876.481 591.032L867.576 568.596L857.986 547.199L854.205 542.655L853.52 518.453L854.205 501.991L852.835 477.789L840.176 450.11L814.145 425.206L797.705 418.896L772.004 401.733L750.768 382.439L725.423 368.417L704.188 360.368L692.214 356.863L690.844 341.438L690.488 326.35L694.598 314.432L697.009 307.785L697.338 288.855L708.298 278.675L711.723 268.86L711.394 250.295L711.038 217.343L700.078 212.07L698.379 185.793L688.433 164.76L674.048 150.036L658.649 140.558L644.948 133.21L625.083 130.406L601.793 133.911L587.052 142.324L570.283 161.955L561.378 175.977L555.897 194.907V233.103L552.116 242.582V252.398L556.582 269.925L564.118 274.469L572.338 280.442L578.147 289.893L576.776 309.524L580.092 329.155L586.942 339.447L574.612 354.871L547.677 367.491L521.181 378.232L457.256 405.8L433.966 420.299L420.266 432.918L404.73 453.475L394.674 475.91L390.564 500.225L388.29 517.528L378.124 536.093L365.356 564.614L358.506 585.17L351.19 609.485L340.23 646.868L334.284 668.378C334.284 668.378 332.914 683.325 332.475 684.727C332.037 686.13 327.434 704.835 326.529 707.163C325.625 709.49 321.049 762.802 321.049 762.802L319.351 787.678V806.271L330.064 826.827L331.544 844.131L325.625 883.841L321.515 905.351L321.159 926.861L320.638 941.22C320.638 941.22 314.665 952.269 314.144 952.634C313.624 952.998 310.363 964.188 310.363 964.188C310.624 969.382 310.624 974.586 310.363 979.781C309.87 980.313 308.5 993.999 308.5 993.999L312.939 1007.49L318.775 1014.33L327.68 1028.52L337.435 1038.34L342.75 1043.95L347.189 1051.49L351.135 1053.59L354.396 1049.89L355.409 1043.78L354.396 1037.8L363.465 1043.78L369.795 1043.08L367.575 1035.17L360.204 1031.86L352.834 1026.05L351.82 1011.86L355.245 994.868L361.41 981.547L373.74 968.563L381.44 977.874L378.7 989.792L386.92 1002.58L393.77 999.608L397.88 992.064L394.975 972.966L390.509 954.737L388.454 934.405L379.549 920.187L368.781 908.801L369.795 898.116L371.274 866.089L374.014 845.533L374.48 821.695C374.48 821.695 379.96 810.926 380.426 809.524L385.906 791.772L388.18 772.141L390.016 742.218L388.646 722.138L389.55 707.163L398.674 692.692L420.595 659.488L432.486 638.931L436.596 619.777L439.775 607.157L443.885 595.463L451.201 585.647L460.791 599.193L469.915 616.973L479.505 631.92L486.355 644.54L495.041 663.246L504.631 679.119L507.837 691.738L509.207 712.772L510.577 736.609L510.112 759.521L501.891 787.089L492.767 805.318L478.135 843.654C478.135 843.654 470.381 860.957 469.477 862.808C468.573 864.659 462.627 898.817 462.627 898.817L463.531 929.666L460.791 989.961V1016.6L463.997 1044.65C463.997 1044.65 473.587 1072.21 474.025 1074.09C474.464 1075.97 487.725 1116.16 487.725 1116.16L493.671 1142.32C493.671 1142.32 494.137 1165.24 494.137 1166.64C494.137 1168.04 499.617 1192.8 499.617 1192.8L498.247 1227.86C498.247 1227.86 497.316 1256.83 497.316 1258.71C497.316 1260.59 496.877 1284.87 496.877 1284.87L503.261 1318.53L511.947 1342.84L528.388 1392.84L543.896 1431.18L558.884 1467.64L575.078 1505.97L579.188 1525.61L584.668 1551.77L598.368 1583.1L607.026 1605.05L610.232 1637.78C610.232 1637.78 608.862 1659.26 608.396 1662.54C607.931 1665.83 607.492 1702.73 607.492 1702.73L605.656 1715.35L615.712 1730.33L629.413 1745.28H640.373L650.429 1738.74L654.073 1720.96L659.553 1680.77L663.197 1644.32V1608.78L672.349 1595.72V1585.42L665.033 1573.28L650.429 1548.97L644.017 1534.94V1517.19L672.349 1422.77L686.953 1386.31C686.953 1386.31 709.668 1328.34 709.668 1325.54C709.668 1322.73 715.148 1294.69 715.148 1294.69V1222.73L727.944 1180.49L731.588 1117.08C731.588 1117.08 723.368 1124.57 731.588 1103.06L739.808 1081.55C739.808 1081.55 740.74 1091.85 750.768 1065.68L760.824 1039.49L768.14 1013.32L773.62 963.767V876.83L768.14 858.153L758.084 832.913L751.7 815.133L747.234 796.456L746.33 772.141V751.585L741.754 732.879L738.11 714.174C738.11 714.174 735.37 713.248 734.438 701.105C733.506 688.962 729.889 702.031 733.534 688.934L737.068 675.865L744.384 656.234C744.384 656.234 745.288 653.43 748.028 639.408C750.768 625.386 746.22 637.529 750.768 625.386L755.344 613.215C755.344 613.215 751.7 612.289 760.824 604.801C769.949 597.314 761.729 606.68 769.949 597.342C774.86 591.732 780.375 586.708 786.389 582.366L793.705 605.755L798.281 630.995L804.665 661.843L810.145 681.474V697.347L814.83 731.954L823.051 760.923L834.011 790.847L845.875 814.207L866.891 842.252L876.015 851.59V873.1L879.66 898.34L883.331 921.701L877.851 939.481L872.371 953.503L860.37 971.255L855.465 992.4L846.231 1008.19V1018.71L849.41 1022.21L855.931 1020.44L862.781 1015.2L866.535 1007.82L869.275 998.374L876.481 994.167L881.276 993.466L885.715 993.102L887.77 1000.81L885.715 1012.4L887.77 1025.35L878.865 1035.53L867.905 1045.35L864.836 1057.6L864.48 1069.19L872.7 1069.89L881.961 1059.71L891.195 1052.36L898.401 1047.79L913.8 1026.75L920.322 1008.89V981.547L923.062 960.15V930.703L925.802 913.176L922.705 892.507ZM630.563 1232.54C627.44 1240.51 625.22 1239.36 621.658 1248.67C616.754 1261.43 617.521 1272.51 616.178 1272.51C615.329 1272.51 614.918 1268.24 613.794 1263.22C611.918 1255.67 609.032 1248.41 605.218 1241.66C597.217 1225.73 587.682 1213.89 588.093 1213.61C588.504 1213.33 591.381 1218.41 592.888 1217.82C595.08 1216.95 590.148 1205.51 590.833 1190.48C591.353 1179.4 594.34 1179.26 596.998 1162.43C597.93 1156.35 597.464 1156.82 599.053 1137.19C600.231 1122.16 601.382 1110.83 601.793 1107.05C603.355 1091.68 603.574 1093.02 605.218 1077.6C606.917 1061.28 606.862 1058.11 608.643 1043.95C610.561 1028.47 610.04 1036.99 612.068 1022.21C613.52 1011.47 613.959 1005.78 616.178 1005.38C618.398 1004.99 620.535 1008.95 621.658 1011.69C623.043 1015.51 623.282 1019.66 622.343 1023.61C621.192 1029.03 621.576 1037.05 622.343 1053.06C622.915 1063.44 624.29 1073.75 626.453 1083.91C627.838 1089.19 628.755 1094.59 629.193 1100.03C629.451 1106.38 628.991 1112.73 627.823 1118.96C625.933 1129.76 624.015 1130.71 623.713 1138.59C623.598 1143.31 624.058 1148.02 625.083 1152.62C626.946 1162.88 629.33 1166.19 631.248 1173.65C632.235 1177.58 632.372 1184.5 632.618 1198.19C632.947 1224.92 631.824 1229.23 630.563 1232.54Z" fill="url(#paint3_linear)"/>
<path d="M1144.02 909.866L1139.58 900.051L1136.84 869.567L1138.89 831.707L1139.22 786.135L1135.11 759.129L1127.58 737.759L1124.15 716.025L1111.49 674.996L1106.01 655.73L1101.49 626.283L1097.74 608.391L1088.83 585.956L1079.24 564.586L1075.46 560.015L1074.78 535.841L1075.46 519.351L1074.09 495.177L1061.43 467.469L1035.4 442.594L1018.96 436.284L993.261 419.093L972.026 399.826L946.681 385.804L925.446 377.727L913.472 374.222L912.102 358.798L911.745 343.738L915.856 331.819L918.267 325.145L918.596 306.215L929.556 296.063L932.981 286.247L932.652 267.654L932.296 234.702L921.336 229.458L919.637 203.152L909.69 182.119L895.305 167.396L879.906 157.945L866.206 150.569L846.341 147.765L823.051 151.27L808.309 159.684L791.54 179.315L782.635 193.337L777.155 212.267V250.491L773.374 259.942V269.757L777.84 287.285L785.375 291.856L793.595 297.801L799.404 307.28L798.034 326.911L801.35 346.542L808.2 356.806L795.869 372.231L768.935 384.851L742.548 395.423L678.624 422.991L655.333 437.49L641.633 450.11L626.097 470.666L616.041 493.101L611.931 517.416L609.657 534.691L599.601 553.396L586.832 581.917L579.982 602.474L572.666 626.872L561.706 664.255L555.76 685.765C555.76 685.765 554.39 700.713 553.952 702.115C553.514 703.517 548.91 722.222 548.006 724.55C547.102 726.878 542.526 780.162 542.526 780.162L540.827 805.065V823.63L551.541 844.215L552.911 861.49L546.992 901.229L542.882 922.739L542.526 944.22L542.006 958.607C542.006 958.607 536.032 969.657 535.512 969.993C534.991 970.33 531.73 981.575 531.73 981.575C531.991 986.769 531.991 991.974 531.73 997.168C531.237 997.701 529.867 1011.36 529.867 1011.36L534.306 1024.85L540.142 1031.69L549.047 1045.88L558.802 1055.7L564.118 1061.31L568.556 1068.85L572.502 1070.95L575.763 1067.28L576.777 1061.14L575.763 1055.19L584.832 1061.14L591.162 1060.44L588.942 1052.56L581.572 1049.22L574.201 1043.44L573.187 1029.25L576.612 1012.23L582.777 998.907L595.107 985.95L602.807 995.233L600.067 1007.15L608.287 1019.94L615.137 1016.97L619.247 1009.42L616.507 990.325L612.041 972.096L609.986 951.764L601.081 937.574L590.312 926.188L591.326 915.475L592.806 883.477L595.546 862.892L596.012 839.055C596.012 839.055 601.492 828.314 601.957 826.911L607.437 809.16L609.712 789.529L611.548 759.605L610.178 739.498L611.082 724.55L620.206 710.051L642.126 676.875L654.018 656.319L658.128 637.136L661.307 624.516L665.417 612.85L672.732 603.035L682.323 616.58L691.447 634.332L701.037 649.308L707.887 661.927L716.573 680.605L726.163 696.506L729.369 709.126L730.739 730.159L732.109 753.997L731.588 776.825L723.368 804.392L714.244 822.621L699.557 860.957C699.557 860.957 691.803 878.232 690.899 880.111C689.995 881.99 684.049 916.092 684.049 916.092L684.953 946.941L682.213 1007.24V1033.88L685.419 1061.92C685.419 1061.92 695.009 1089.52 695.447 1091.37C695.886 1093.22 709.147 1133.43 709.147 1133.43L715.093 1159.63C715.093 1159.63 715.559 1182.51 715.559 1183.91C715.559 1185.32 721.039 1210.11 721.039 1210.11L719.669 1245.16C719.669 1245.16 718.738 1274.13 718.738 1276.01C718.738 1277.89 718.299 1302.18 718.299 1302.18L724.683 1335.83L733.369 1360.14L749.81 1410.15L765.318 1448.48L780.306 1484.94L796.39 1523.25L800.5 1542.88L805.98 1569.07L819.68 1600.37L828.339 1622.36L831.545 1655.06C831.545 1655.06 830.175 1676.57 829.709 1679.85C829.243 1683.13 828.805 1720.04 828.805 1720.04L826.969 1732.66L837.025 1747.6L850.725 1762.58H861.685L871.741 1756.02L875.385 1738.26L880.865 1698.08L884.51 1661.62V1626.17L893.661 1613.07V1602.81L886.345 1590.64L871.741 1566.35L865.329 1552.33V1534.55L893.661 1440.15L908.266 1403.7C908.266 1403.7 931.09 1345.73 931.09 1342.92C931.09 1340.12 936.57 1312.08 936.57 1312.08V1240.09L949.366 1197.88L953.01 1134.47C953.01 1134.47 944.79 1141.93 953.01 1120.45L961.23 1098.94C961.23 1098.94 962.162 1109.23 972.191 1083.04L982.247 1056.87L989.562 1030.71L995.042 981.155V894.218L989.562 875.512L979.506 850.272L973.122 832.52L968.546 813.815L967.642 789.529V768.944L963.066 750.267L959.422 731.561C959.422 731.561 956.682 730.636 955.75 718.465C954.819 706.293 951.202 719.418 954.846 706.321L958.49 693.225L965.806 673.594C965.806 673.594 966.711 670.789 969.451 656.767C972.191 642.745 967.642 654.916 972.191 642.745L976.766 630.602C976.766 630.602 973.122 629.677 982.247 622.189C991.371 614.701 983.151 624.068 991.371 614.701C996.287 609.104 1001.8 604.09 1007.81 599.753L1015.13 623.114L1019.7 648.354L1026.09 679.203L1031.57 698.834V714.735L1036.14 749.313L1044.36 778.311L1055.32 808.206L1067.19 831.595L1088.2 859.639L1097.33 868.978V890.488L1100.97 915.728L1104.64 939.088L1099.16 956.84L1093.68 970.862L1081.79 988.642L1076.83 1009.79L1067.6 1025.55V1036.07L1070.67 1039.57L1077.19 1037.83L1084.04 1032.56L1087.79 1025.21L1090.53 1015.73L1097.74 1011.53L1102.53 1010.83L1106.97 1010.49L1109.03 1018.2L1106.97 1029.76L1109.03 1042.74L1100.12 1052.89L1089.16 1062.71L1086.09 1074.99L1085.74 1086.54L1093.96 1087.25L1103.22 1077.09L1112.45 1069.72L1119.66 1065.18L1135.06 1044.14L1141.58 1026.25V998.907L1144.32 977.537V948.091L1147.06 930.563L1144.02 909.866ZM851.876 1249.9C848.752 1257.89 846.533 1256.72 842.971 1266.03C838.066 1278.82 838.833 1289.87 837.491 1289.87C836.641 1289.87 836.23 1285.6 835.107 1280.58C833.221 1273.03 830.335 1265.77 826.53 1259.02C818.53 1243.12 808.994 1231.28 809.405 1230.97C809.816 1230.66 812.693 1235.77 814.2 1235.18C816.392 1234.34 811.46 1222.9 812.145 1207.84C812.666 1196.76 815.653 1196.62 818.31 1179.79C819.242 1173.73 818.776 1174.18 820.365 1154.55C821.544 1139.52 822.694 1128.22 823.105 1124.4C824.695 1109.06 824.886 1110.38 826.53 1094.96C828.229 1078.64 828.174 1075.5 829.955 1061.31C831.874 1045.85 831.353 1054.35 833.381 1039.57C834.833 1028.86 835.271 1023.16 837.491 1022.74C839.71 1022.32 841.847 1026.31 842.971 1029.05C844.356 1032.87 844.594 1037.02 843.656 1040.97C842.505 1046.41 842.888 1054.41 843.656 1070.42C844.238 1080.8 845.612 1091.11 847.766 1101.27C849.148 1106.55 850.065 1111.95 850.506 1117.39C850.765 1123.74 850.305 1130.09 849.136 1136.32C847.245 1147.15 845.327 1148.1 845.026 1155.95C844.907 1160.67 845.367 1165.38 846.396 1169.98C848.259 1180.27 850.643 1183.58 852.561 1191.01C853.547 1194.96 853.684 1201.89 853.931 1215.55C854.369 1242.36 853.164 1246.62 851.876 1249.9Z" fill="url(#paint4_linear)"/>
<path d="M885.14 238.656C892.706 238.656 898.84 234.89 898.84 230.243C898.84 225.597 892.706 221.83 885.14 221.83C877.573 221.83 871.439 225.597 871.439 230.243C871.439 234.89 877.573 238.656 885.14 238.656Z" fill="white"/>
<path d="M817.078 247.07C824.644 247.07 830.778 243.303 830.778 238.656C830.778 234.01 824.644 230.243 817.078 230.243C809.512 230.243 803.378 234.01 803.378 238.656C803.378 243.303 809.512 247.07 817.078 247.07Z" fill="white"/>
<defs>
<linearGradient id="paint0_linear" x1="0" y1="807.449" x2="617.192" y2="807.449" gradientUnits="userSpaceOnUse">
<stop stop-color="#465B9A"/>
<stop offset="1" stop-color="#42A7E0"/>
</linearGradient>
<linearGradient id="paint1_linear" x1="249488" y1="479343" x2="388498" y2="479343" gradientUnits="userSpaceOnUse">
<stop stop-color="#465B9A"/>
<stop offset="1" stop-color="#42A7E0"/>
</linearGradient>
<linearGradient id="paint2_linear" x1="168645" y1="552114" x2="307692" y2="552114" gradientUnits="userSpaceOnUse">
<stop stop-color="#465B9A"/>
<stop offset="1" stop-color="#42A7E0"/>
</linearGradient>
<linearGradient id="paint3_linear" x1="69835.2" y1="540159" x2="208882" y2="540159" gradientUnits="userSpaceOnUse">
<stop stop-color="#465B9A"/>
<stop offset="1" stop-color="#42A7E0"/>
</linearGradient>
<linearGradient id="paint4_linear" x1="119895" y1="550169" x2="258917" y2="550169" gradientUnits="userSpaceOnUse">
<stop stop-color="#465B9A"/>
<stop offset="1" stop-color="#42A7E0"/>
</linearGradient>
</defs>
</svg>
