<svg width="1898" height="1244" viewBox="0 0 1898 1244" fill="none" xmlns="http://www.w3.org/2000/svg">
<path d="M154.061 581.489C164.33 589.715 175.176 597.192 186.516 603.863C197.76 610.564 209.283 616.706 220.686 623.087L289.224 661.135C334.856 686.6 380.748 711.626 426.5 736.912L564.175 811.832L633.111 849.102L667.6 867.747C673.361 870.798 679.043 874.048 684.884 876.96C690.828 879.986 697.171 882.155 703.723 883.401L699.736 890.799C695.107 886.018 689.825 881.916 684.047 878.615C678.385 875.345 672.544 872.393 666.822 869.263L632.274 850.757L563.158 813.766L424.746 740.162C378.475 715.874 332.305 691.386 285.915 667.317L216.4 631.083C204.797 625.101 193.314 618.859 181.532 613.136C169.72 607.336 157.5 602.404 144.971 598.38L154.061 581.489Z" fill="#00AFEB"/>
<path d="M44.0778 833.548C48.2291 838.146 53.0555 842.086 58.3915 845.233C63.5348 848.344 68.9772 850.897 74.3399 853.708L106.237 870.2C127.501 881.247 148.852 892.122 170.289 902.824C191.727 913.526 213.211 924.161 234.741 934.73L267.136 950.424L283.304 958.261C286.015 959.537 288.647 960.993 291.438 962.109C294.459 963.3 297.754 963.617 300.947 963.027L297.319 970.604C295.776 967.739 293.463 965.363 290.64 963.745C288.029 962.269 285.258 961.132 282.566 959.756L266.339 952.039L233.884 936.604C212.194 926.394 190.458 916.258 168.675 906.194C146.905 896.223 125.096 886.253 103.187 876.521L70.3528 861.884C64.8506 859.491 59.4879 856.839 53.8262 854.765C48.0353 852.568 41.9463 851.258 35.7646 850.877L44.0778 833.548Z" fill="#00AFEB"/>
<path d="M304.555 958.978C309.763 965.547 315.702 971.502 322.258 976.726C328.637 981.931 335.415 986.697 341.994 991.543L381.765 1020.8C408.24 1040.4 434.973 1059.58 461.507 1078.97L541.788 1136.44L582.117 1164.97L602.252 1179.25C605.641 1181.58 608.91 1184.1 612.379 1186.29C615.999 1188.61 620.08 1190.12 624.34 1190.72L619.516 1197.58C617.513 1193.77 614.712 1190.43 611.303 1187.81C608.053 1185.27 604.604 1183.04 601.335 1180.63L581.08 1166.57L540.631 1138.27L459.434 1082.02C432.222 1063.49 405.13 1044.81 377.698 1026.5L336.91 998.921C330.033 994.394 323.354 989.588 316.277 985.341C309.153 980.926 301.548 977.34 293.61 974.652L304.555 958.978Z" fill="#00AFEB"/>
<path d="M620.333 1184.71C626.429 1186.01 632.684 1186.4 638.893 1185.85C644.874 1185.37 650.854 1184.28 656.835 1183.48L692.719 1178.25C716.641 1174.82 740.444 1171.15 764.267 1167.41C788.09 1163.66 811.893 1159.73 835.676 1155.7L871.341 1149.72L889.123 1146.63C892.094 1146.07 895.104 1145.71 898.015 1144.99C901.191 1144.21 904.085 1142.55 906.368 1140.21L907.803 1148.48C904.864 1147.05 901.584 1146.47 898.334 1146.81C895.323 1147.12 892.353 1147.8 889.422 1148.28L871.6 1151.47L835.995 1157.85C812.272 1162.15 788.562 1166.55 764.865 1171.07C741.169 1175.59 717.505 1180.29 693.875 1185.15L658.41 1192.41C652.529 1193.67 646.568 1194.65 640.727 1196.26C634.701 1197.85 628.948 1200.34 623.662 1203.64L620.333 1184.71Z" fill="#00AFEB"/>
<path d="M297.179 957.423C305.819 958.107 314.509 957.853 323.095 956.665C331.607 955.569 339.98 953.854 348.413 952.418L398.949 943.464C432.66 937.582 466.272 931.24 499.943 925.118L600.777 905.935L651.134 896.124L676.312 891.218C680.499 890.341 684.725 889.682 688.892 888.646C693.23 887.593 697.303 885.651 700.853 882.942L702.488 891.178C698.18 890.02 693.68 889.769 689.27 890.44C685.024 891.078 680.877 892.075 676.671 892.873L651.512 897.938L601.195 908.048L500.68 928.767C467.229 935.926 433.737 942.886 400.325 950.304L350.187 961.272C341.834 963.166 333.441 964.782 325.168 966.995C316.744 969.181 308.582 972.277 300.827 976.228L297.179 957.423Z" fill="#00AFEB"/>
<path d="M294.088 960.654C303.258 957.204 312.03 953.216 320.861 949.048C329.693 944.88 338.205 940.433 346.777 935.807C355.35 931.18 363.663 926.375 371.996 921.489L397.095 906.912C430.527 887.489 463.958 868.026 497.171 848.185C530.384 828.343 563.297 807.963 596.051 787.344L620.572 771.789C624.559 769.177 628.765 766.645 632.812 763.952C636.845 761.177 640.676 758.118 644.275 754.799C651.571 748.079 658.23 740.222 665.825 734.04C673.421 727.859 681.515 722.534 691.542 720.56C696.526 719.543 701.749 718.945 706.773 717.988C711.635 717.1 716.338 715.494 720.728 713.222L746.385 699.622L797.679 672.442L848.913 645.162C865.978 636.049 882.943 626.756 899.928 617.483C933.779 598.778 967.303 579.502 1000.5 559.653C1017.06 549.683 1033.58 539.592 1050.04 529.383L1062.34 521.705C1066.54 519.294 1070.53 516.56 1074.3 513.529C1078.24 510.015 1081.5 505.803 1083.91 501.106C1085.32 498.374 1086.49 495.525 1087.4 492.591C1088.51 489.044 1089.21 485.386 1089.51 481.683L1119.68 534.428C1116.33 532.815 1112.82 531.572 1109.21 530.719C1106.22 530.031 1103.17 529.591 1100.1 529.402C1094.83 529.102 1089.55 529.778 1084.53 531.397C1079.98 533.113 1075.58 535.194 1071.37 537.618L1058.57 544.279C1041.43 553.252 1024.37 562.372 1007.38 571.638C973.41 590.117 939.792 609.241 906.527 629.009C889.94 638.98 873.314 648.951 856.808 658.921L807.328 689.252L757.888 719.683L733.187 734.918C728.996 737.556 725.221 740.801 721.984 744.549C718.615 748.398 715.445 752.526 712.016 756.375C705.258 764.012 696.526 768.339 687.376 771.71C678.225 775.08 668.038 776.874 658.569 779.686C653.879 781.108 649.295 782.86 644.853 784.931C640.487 787.044 636.221 789.318 631.895 791.511L605.979 804.772C571.623 822.626 537.454 840.8 503.471 859.292C469.58 877.857 435.809 896.802 402.098 915.806L376.78 930.024C368.348 934.75 359.935 939.536 351.662 944.521C343.388 949.506 335.175 954.671 327.141 960.115C319.107 965.559 311.193 971.143 303.557 977.305L294.088 960.654Z" fill="#00AFEB"/>
<path d="M1597.67 943.524C1594.24 937.792 1590.46 932.284 1586.33 927.032C1582.34 921.768 1578.06 916.723 1573.65 911.817C1569.24 906.912 1564.68 902.166 1560.07 897.459L1546.28 883.401C1527.88 864.536 1509.46 845.692 1490.72 827.166C1471.98 808.641 1452.84 790.514 1433.42 772.607L1418.81 759.246C1416.36 757.033 1413.97 754.759 1411.45 752.606C1408.84 750.451 1406.01 748.579 1403 747.022C1396.86 743.772 1389.78 741.439 1384.04 737.809C1378.3 734.18 1373.36 729.833 1371.18 722.773C1370.05 719.284 1369.19 715.475 1368.19 711.945C1367.25 708.614 1365.62 705.521 1363.39 702.872L1350.41 687.936L1324.5 658.024C1307.17 638.083 1289.89 618.141 1272.1 598.778C1254.32 579.415 1236 560.351 1217.24 541.826C1207.81 532.6 1198.3 523.46 1188.71 514.406L1181.5 507.646C1179.2 505.242 1176.63 503.108 1173.84 501.285C1170.4 499.445 1166.58 498.428 1162.68 498.314C1156.9 498.111 1151.13 498.99 1145.67 500.906L1189.53 459.029C1187.37 464.394 1186.24 470.116 1186.18 475.9C1186.12 479.805 1186.98 483.67 1188.67 487.187C1190.34 490.077 1192.35 492.756 1194.66 495.163L1201.11 502.521C1209.7 512.532 1218.41 522.443 1227.23 532.254C1244.83 551.85 1262.97 570.953 1281.65 589.565C1300.27 608.191 1319.39 626.357 1338.49 644.564L1367.16 671.823L1381.49 685.463C1384.05 687.793 1387.06 689.565 1390.34 690.668C1393.81 691.884 1397.6 692.841 1401.01 694.118C1407.95 696.61 1412.01 701.835 1415.46 707.638C1418.91 713.441 1420.86 720.719 1423.81 727.001C1425.24 730.071 1426.99 732.985 1429.02 735.695C1431.01 738.308 1433.22 740.78 1435.32 743.333L1448.02 758.528C1465.04 778.709 1482.36 798.604 1499.97 818.213C1517.63 837.775 1535.63 857.018 1553.65 876.222L1567.17 890.64C1571.66 895.465 1576.2 900.251 1580.91 904.858C1585.61 909.464 1590.48 913.931 1595.54 918.218C1600.6 922.54 1605.92 926.537 1611.49 930.183L1597.67 943.524Z" fill="#00AFEB"/>
<path d="M1547.49 279.418C1542.96 280.246 1538.52 281.487 1534.22 283.127C1529.99 284.675 1525.86 286.459 1521.84 288.471C1517.85 290.465 1513.86 292.659 1510.05 294.912L1498.43 301.613C1482.9 310.546 1467.41 319.56 1452.14 328.852C1436.87 338.145 1421.88 348.076 1407.05 358.186L1395.96 365.883C1394.13 367.18 1392.24 368.396 1390.44 369.872C1388.61 371.382 1387.01 373.148 1385.68 375.116C1382.85 379.204 1380.63 384.449 1377.52 388.038C1374.41 391.628 1370.77 394.32 1365.26 393.622C1362.53 393.323 1359.56 392.605 1356.81 392.226C1354.37 391.811 1351.86 392.094 1349.57 393.044L1337.39 398.747L1313.03 410.173C1296.8 417.811 1280.56 425.408 1264.63 433.604C1248.7 441.8 1233.11 450.534 1217.86 459.947C1210.27 464.679 1202.73 469.519 1195.23 474.464L1189.63 478.213C1187.63 479.318 1185.83 480.754 1184.31 482.46C1182.61 484.998 1181.6 487.932 1181.38 490.975C1181.12 493.186 1181.08 495.416 1181.24 497.636L1181.34 499.53C1181.34 500.168 1181.5 500.966 1181.58 501.684C1181.7 503.06 1182.06 504.835 1182.36 506.53L1152.85 453.506C1154.13 454.662 1155.46 455.899 1156.56 456.716C1157.14 457.175 1157.73 457.693 1158.27 458.072L1159.83 459.149C1161.63 460.449 1163.54 461.583 1165.55 462.539C1168.26 463.956 1171.29 464.643 1174.34 464.533C1176.6 464.143 1178.77 463.367 1180.76 462.24L1186.88 459.468C1195.04 455.719 1203.13 451.851 1211.14 447.862C1227.19 439.886 1242.84 431.211 1258.19 421.939C1273.54 412.666 1288.55 402.915 1303.6 393.143L1326.15 378.447L1337.41 371.108C1339.42 369.662 1340.98 367.678 1341.92 365.385C1343.06 362.852 1343.91 359.941 1345.19 357.408C1347.5 352.363 1351.73 350.788 1356.37 349.93C1361.02 349.073 1366.7 350.07 1371.66 349.811C1374.03 349.724 1376.38 349.287 1378.62 348.515C1380.75 347.717 1382.77 346.76 1384.84 345.882L1397.22 340.518C1413.65 333.24 1429.91 325.682 1445.92 317.645C1461.93 309.609 1477.7 301.134 1493.45 292.659L1505.27 286.298C1509.26 284.204 1513.14 282.05 1516.95 279.677C1520.78 277.317 1524.47 274.747 1528.02 271.98C1531.68 269.18 1535.08 266.056 1538.18 262.647L1547.49 279.418Z" fill="#00AFEB"/>
<path d="M1013.18 143.179C1013.51 147.18 1014.25 151.137 1015.4 154.984C1016.45 158.728 1017.75 162.399 1019.28 165.972C1020.78 169.541 1022.49 172.991 1024.29 176.401L1029.55 186.711C1036.57 200.45 1043.62 214.19 1051.08 227.71C1058.54 241.23 1066.53 254.511 1074.78 267.593L1081.08 277.384C1082.14 279.019 1083.08 280.674 1084.27 282.27C1085.55 283.918 1087.09 285.34 1088.84 286.477C1092.51 288.97 1097.35 290.884 1100.52 293.636C1103.69 296.388 1105.88 299.619 1104.63 304.504C1104.05 306.937 1103.03 309.589 1102.39 312.042C1101.72 314.136 1101.72 316.389 1102.39 318.483L1106.64 329.291L1115.17 350.967C1120.89 365.365 1126.54 379.783 1132.8 393.881C1139.06 407.98 1145.89 421.799 1153.43 435.339C1157.22 442.079 1161.08 448.76 1165.11 455.281L1168.16 460.226C1169.02 462.012 1170.23 463.612 1171.71 464.932C1174.1 466.473 1176.85 467.354 1179.68 467.485C1181.83 467.669 1183.98 467.669 1186.12 467.485L1187.96 467.385C1188.6 467.385 1189.37 467.225 1190.07 467.146C1191.41 467.046 1193.18 466.707 1194.85 466.428L1140.31 493.289C1141.55 492.132 1142.9 490.936 1143.82 489.959C1144.3 489.44 1144.88 488.882 1145.3 488.423L1146.51 487.027C1147.95 485.429 1149.24 483.707 1150.38 481.882C1152.01 479.569 1153 476.865 1153.25 474.045C1153.11 472.066 1152.59 470.134 1151.69 468.362L1149.7 462.918C1146.95 455.679 1144.04 448.52 1141.03 441.401C1135.05 427.183 1128.21 413.304 1120.89 399.704C1113.58 386.104 1105.64 372.823 1097.77 359.502L1085.81 339.561L1079.83 329.59C1078.6 327.762 1076.83 326.367 1074.76 325.602C1072.43 324.605 1069.7 323.787 1067.45 322.751C1062.8 320.756 1061.71 316.968 1061.47 312.78C1061.23 308.592 1062.66 303.587 1062.94 299.16C1063.12 297.085 1062.95 294.994 1062.42 292.978C1061.87 291.104 1061.15 289.309 1060.43 287.454L1056.44 276.487C1051.12 261.909 1045.5 247.472 1039.4 233.294C1033.3 219.115 1026.74 205.117 1020.16 191.158L1015.26 180.669C1013.64 177.179 1011.97 173.709 1010.07 170.339C1008.18 166.94 1006.08 163.663 1003.77 160.528C1001.43 157.273 998.755 154.266 995.799 151.554L1013.18 143.179Z" fill="#00AFEB"/>
<path d="M428.713 218.098C443.147 225.933 458.155 232.659 473.608 238.219C481.263 241.051 489.018 243.663 496.773 246.196L520.018 253.893C551.018 264.183 582.017 274.453 613.176 284.284C644.336 294.115 675.674 303.368 707.113 312.361L730.736 319.061C734.723 320.138 738.591 321.335 742.558 322.332C746.604 323.293 750.727 323.9 754.878 324.146C763.331 324.685 772.182 324.027 780.435 325.104C788.689 326.18 796.603 328.294 803.262 334.037C806.631 336.849 809.82 340.139 813.229 343.031C816.387 345.827 820.001 348.06 823.915 349.631L846.801 358.426L892.652 375.994L938.504 393.462C953.795 399.245 969.145 404.849 984.475 410.492C1015.2 421.553 1046.14 431.996 1077.3 441.82C1092.91 446.686 1108.55 451.425 1124.22 456.038L1135.99 459.468C1139.87 460.808 1143.88 461.776 1147.95 462.36C1152.52 462.712 1157.13 462.115 1161.46 460.605C1167.4 458.558 1172.89 455.375 1177.61 451.232L1158.03 508.683C1156.83 502.525 1154.44 496.659 1151 491.414C1148.47 487.566 1145.18 484.28 1141.33 481.763C1137.75 479.746 1133.99 478.07 1130.1 476.757L1118.38 472.251C1103.15 466.308 1087.87 460.512 1072.53 454.862C1041.87 443.562 1010.98 432.926 979.87 422.956C964.281 418.07 948.711 413.125 933.082 408.398L886.133 394.26L839.165 380.301L815.761 373.302C811.703 372.14 807.473 371.694 803.262 371.986C798.876 372.245 794.33 372.903 789.965 373.082C781.173 373.561 773.657 370.291 766.421 366.223C759.184 362.155 752.605 356.112 745.588 351.386C742.151 349.046 738.515 347.011 734.723 345.304C730.975 343.669 727.148 342.213 723.36 340.678L700.614 331.505C670.219 319.434 639.697 307.735 609.05 296.408C578.389 285.181 547.549 274.473 516.729 263.604L493.603 255.508C485.908 252.796 478.173 250.144 470.378 247.711C454.747 242.67 438.751 238.837 422.533 236.245L428.713 218.098Z" fill="#00AFEB"/>
<path d="M424.308 217.66C430.464 218.324 436.659 218.564 442.848 218.378C448.975 218.231 455.068 217.839 461.129 217.201C467.109 216.583 473.209 215.725 479.23 214.808L497.292 212.116C521.394 208.546 545.476 204.937 569.498 200.889C593.52 196.841 617.463 192.175 641.266 187.249L659.208 183.44C662.178 182.762 665.188 182.224 668.159 181.446C671.193 180.629 674.123 179.465 676.891 177.976C682.632 174.965 688.174 170.658 693.975 168.225C699.776 165.792 705.757 164.376 712.236 166.809C715.466 167.966 718.755 169.601 722.005 170.798C724.997 171.996 728.216 172.521 731.434 172.333L749.655 170.758L786.097 167.627C810.379 165.513 834.68 163.439 858.882 160.707C883.083 157.975 907.205 154.605 931.208 150.457C943.169 148.383 955.13 146.17 967.092 143.817L976.063 142.022C979.116 141.626 982.105 140.835 984.954 139.669C988.23 137.964 991.047 135.495 993.167 132.47C996.442 127.877 998.86 122.729 1000.3 117.275L1008.74 177.478C1005.88 172.62 1002.17 168.322 997.772 164.795C994.887 162.426 991.464 160.803 987.805 160.069C984.748 159.726 981.66 159.773 978.615 160.209L969.484 160.907C957.323 161.864 945.203 162.901 933.082 164.237C908.84 166.749 884.718 170.04 860.676 173.928C836.634 177.817 812.671 182.423 788.709 186.95L752.825 193.79L734.883 197.22C731.731 197.887 728.769 199.249 726.211 201.208C723.44 203.202 720.709 205.755 717.898 207.729C712.316 211.717 706.196 211.976 699.956 211.318C693.716 210.66 687.197 207.888 680.858 206.552C677.79 205.861 674.653 205.526 671.508 205.555C668.458 205.555 665.408 205.914 662.358 206.094L644.097 207.27C619.755 208.965 595.454 210.999 571.212 213.552C546.971 216.104 522.829 219.195 498.667 222.266L480.546 224.559C474.565 225.297 468.465 226.095 462.464 227.152C456.464 228.209 450.503 229.445 444.522 230.98C438.517 232.464 432.622 234.363 426.879 236.664L424.308 217.66Z" fill="#00AFEB"/>
<path d="M1599.41 941.829C1600.2 934.778 1600.58 927.687 1600.54 920.591C1600.54 913.532 1600.28 906.513 1599.8 899.513C1599.33 892.514 1598.63 885.554 1597.81 878.575L1595.54 857.656C1592.55 829.739 1589.56 801.821 1586.01 774.062C1582.46 746.304 1578.43 718.446 1574.05 690.688L1570.64 669.889C1570.06 666.419 1569.56 662.949 1568.9 659.5C1568.16 655.98 1567.06 652.545 1565.62 649.25C1562.74 642.49 1558.58 635.849 1556.27 629.029C1553.95 622.209 1552.72 615.29 1555.29 607.991C1556.5 604.342 1558.24 600.653 1559.55 597.003C1560.84 593.571 1561.44 589.918 1561.31 586.255L1560.17 565.237L1557.92 523.181C1556.37 495.163 1554.87 467.126 1552.7 439.148C1550.52 411.17 1547.73 383.312 1544.16 355.394C1542.37 341.475 1540.44 327.569 1538.36 313.677L1536.79 303.268C1536.46 299.748 1535.74 296.276 1534.64 292.918C1533.08 289.137 1530.68 285.761 1527.62 283.047C1523.23 279.089 1518.13 276.003 1512.59 273.954L1572.97 267.971C1567.95 271.072 1563.55 275.09 1560.01 279.817C1557.55 283.084 1555.85 286.868 1555.05 290.884C1554.65 294.396 1554.65 297.941 1555.05 301.453L1555.53 311.982C1556.21 326.007 1557.03 340.019 1558 354.018C1559.99 381.936 1562.66 409.854 1565.97 437.772C1569.28 465.69 1573.31 493.408 1577.28 521.206L1583.26 562.884L1586.25 583.722C1586.84 587.337 1588.14 590.8 1590.08 593.912C1592.07 597.243 1594.5 600.533 1596.42 603.883C1600.4 610.524 1600.4 617.583 1599.57 624.702C1598.73 631.821 1595.84 639.159 1594.34 646.358C1593.57 649.869 1593.16 653.451 1593.13 657.047C1593.13 660.556 1593.35 664.066 1593.45 667.576L1594.18 688.654C1595.32 716.711 1596.77 744.749 1598.75 772.746C1600.72 800.744 1603.23 828.582 1605.75 856.5L1607.6 877.458C1608.22 884.438 1608.88 891.417 1609.77 898.377C1610.67 905.336 1611.77 912.336 1613.18 919.176C1614.53 926.146 1616.29 933.031 1618.44 939.795L1599.41 941.829Z" fill="#00AFEB"/>
<path d="M158.428 586.395C159.275 594.947 161.06 603.379 163.751 611.541C166.342 619.617 169.512 627.494 172.403 635.371L190.125 682.871C201.867 714.558 214.048 746.085 226.009 777.692L262.651 872.194L281.211 919.295L290.481 942.866C292.075 946.854 293.471 950.842 295.205 954.631C297.025 958.651 299.659 962.25 302.94 965.2L295.046 968.371C295.432 963.978 294.881 959.553 293.431 955.389C292.056 951.401 290.341 947.413 288.826 943.584L279.396 920.053L260.577 872.992L222.461 779.068C209.503 747.86 196.764 716.552 183.586 685.443L163.93 638.701C160.601 630.944 157.531 623.067 153.962 615.429C150.337 607.645 145.857 600.288 140.605 593.494L158.428 586.395Z" fill="#00AFEB"/>
<path d="M906.149 1158.03C894.239 1151.99 881.914 1146.81 869.268 1142.52C856.729 1138.17 843.99 1134.44 831.391 1130.41L755.416 1106.74C704.82 1090.79 654.084 1075.36 603.428 1059.68L451.181 1013.42L375.007 990.526L336.91 979C330.551 977.145 324.231 975.011 317.832 973.396C311.339 971.619 304.628 970.759 297.896 970.844L300.289 962.867C305.887 966.639 311.987 969.606 318.41 971.681C324.71 973.775 331.109 975.51 337.449 977.444L375.585 988.751L451.858 1011.36L604.544 1056.11C655.52 1070.77 706.435 1085.65 757.47 1099.98L834.002 1121.76C846.781 1125.31 859.46 1129.16 872.338 1132.41C885.263 1135.74 898.406 1138.16 911.671 1139.65L906.149 1158.03Z" fill="#00AFEB"/>
<path d="M101.112 1102.94C106.494 1101.69 111.629 1099.56 116.303 1096.61C120.829 1093.82 124.975 1090.63 129.301 1087.48L155.018 1068.82C172.202 1056.41 189.26 1043.86 206.192 1031.17C223.124 1018.47 240.01 1005.69 256.848 992.839L282.027 973.496L294.626 963.804C296.62 962.169 298.873 960.673 300.846 958.879C303 956.89 304.49 954.286 305.112 951.421L310.256 958.061C307.324 957.955 304.43 958.748 301.963 960.334C299.75 961.79 297.776 963.545 295.663 965.14L283.084 974.951L258.085 994.534C241.445 1007.62 224.879 1020.8 208.385 1034.08C191.892 1047.36 175.525 1060.77 159.284 1074.32L134.823 1094.6C130.836 1098.03 126.57 1101.24 122.742 1104.93C118.701 1108.72 115.331 1113.17 112.775 1118.09L101.112 1102.94Z" fill="#00AFEB"/>
<path d="M49.8388 899.015C77.364 899.015 99.6775 876.695 99.6775 849.162C99.6775 821.628 77.364 799.308 49.8388 799.308C22.3136 799.308 0 821.628 0 849.162C0 876.695 22.3136 899.015 49.8388 899.015Z" fill="url(#paint0_linear)"/>
<path d="M299.032 1016.67C326.557 1016.67 348.871 994.349 348.871 966.816C348.871 939.282 326.557 916.962 299.032 916.962C271.507 916.962 249.193 939.282 249.193 966.816C249.193 994.349 271.507 1016.67 299.032 1016.67Z" fill="url(#paint1_linear)"/>
<path d="M701.729 936.904C729.255 936.904 751.568 914.583 751.568 887.05C751.568 859.517 729.255 837.197 701.729 837.197C674.204 837.197 651.891 859.517 651.891 887.05C651.891 914.583 674.204 936.904 701.729 936.904Z" fill="url(#paint2_linear)"/>
<path d="M621.988 1244C649.513 1244 671.827 1221.68 671.827 1194.15C671.827 1166.61 649.513 1144.29 621.988 1144.29C594.463 1144.29 572.149 1166.61 572.149 1194.15C572.149 1221.68 594.463 1244 621.988 1244Z" fill="url(#paint3_linear)"/>
<path d="M99.6776 1178.19C127.203 1178.19 149.516 1155.87 149.516 1128.34C149.516 1100.81 127.203 1078.49 99.6776 1078.49C72.1524 1078.49 49.8389 1100.81 49.8389 1128.34C49.8389 1155.87 72.1524 1178.19 99.6776 1178.19Z" fill="url(#paint4_linear)"/>
<path d="M149.517 639.778C177.042 639.778 199.355 617.458 199.355 589.924C199.355 562.391 177.042 540.071 149.517 540.071C121.991 540.071 99.6777 562.391 99.6777 589.924C99.6777 617.458 121.991 639.778 149.517 639.778Z" fill="url(#paint5_linear)"/>
<path d="M1167.6 580.971C1223.39 580.971 1268.62 535.732 1268.62 479.928C1268.62 424.124 1223.39 378.885 1167.6 378.885C1111.81 378.885 1066.59 424.124 1066.59 479.928C1066.59 535.732 1111.81 580.971 1167.6 580.971Z" fill="url(#paint6_linear)"/>
<path d="M1004.59 294.813C1085.98 294.813 1151.95 228.817 1151.95 147.406C1151.95 65.996 1085.98 0 1004.59 0C923.203 0 857.227 65.996 857.227 147.406C857.227 228.817 923.203 294.813 1004.59 294.813Z" fill="url(#paint7_linear)"/>
<path d="M1542.85 418.449C1624.24 418.449 1690.21 352.453 1690.21 271.043C1690.21 189.632 1624.24 123.636 1542.85 123.636C1461.46 123.636 1395.49 189.632 1395.49 271.043C1395.49 352.453 1461.46 418.449 1542.85 418.449Z" fill="url(#paint8_linear)"/>
<path d="M1608.94 1226.05C1768.58 1226.05 1898 1096.6 1898 936.904C1898 777.211 1768.58 647.754 1608.94 647.754C1449.29 647.754 1319.87 777.211 1319.87 936.904C1319.87 1096.6 1449.29 1226.05 1608.94 1226.05Z" fill="url(#paint9_linear)"/>
<path d="M425.623 374.578C507.01 374.578 572.986 308.582 572.986 227.172C572.986 145.761 507.01 79.7653 425.623 79.7653C344.237 79.7653 278.26 145.761 278.26 227.172C278.26 308.582 344.237 374.578 425.623 374.578Z" fill="url(#paint10_linear)"/>
<path d="M907.065 1194.15C934.591 1194.15 956.904 1171.83 956.904 1144.29C956.904 1116.76 934.591 1094.44 907.065 1094.44C879.54 1094.44 857.227 1116.76 857.227 1144.29C857.227 1171.83 879.54 1194.15 907.065 1194.15Z" fill="url(#paint11_linear)"/>
<defs>
<linearGradient id="paint0_linear" x1="0" y1="849.162" x2="99.6775" y2="849.162" gradientUnits="userSpaceOnUse">
<stop stop-color="#7668AE"/>
<stop offset="1" stop-color="#0096D7"/>
</linearGradient>
<linearGradient id="paint1_linear" x1="249.193" y1="966.816" x2="348.871" y2="966.816" gradientUnits="userSpaceOnUse">
<stop stop-color="#7668AE"/>
<stop offset="1" stop-color="#0096D7"/>
</linearGradient>
<linearGradient id="paint2_linear" x1="651.891" y1="887.05" x2="751.568" y2="887.05" gradientUnits="userSpaceOnUse">
<stop stop-color="#7668AE"/>
<stop offset="1" stop-color="#0096D7"/>
</linearGradient>
<linearGradient id="paint3_linear" x1="572.149" y1="1194.15" x2="671.827" y2="1194.15" gradientUnits="userSpaceOnUse">
<stop stop-color="#7668AE"/>
<stop offset="1" stop-color="#0096D7"/>
</linearGradient>
<linearGradient id="paint4_linear" x1="49.8389" y1="1128.34" x2="149.516" y2="1128.34" gradientUnits="userSpaceOnUse">
<stop stop-color="#7668AE"/>
<stop offset="1" stop-color="#0096D7"/>
</linearGradient>
<linearGradient id="paint5_linear" x1="99.6777" y1="589.924" x2="199.355" y2="589.924" gradientUnits="userSpaceOnUse">
<stop stop-color="#7668AE"/>
<stop offset="1" stop-color="#0096D7"/>
</linearGradient>
<linearGradient id="paint6_linear" x1="1066.59" y1="479.928" x2="1268.62" y2="479.928" gradientUnits="userSpaceOnUse">
<stop stop-color="#7668AE"/>
<stop offset="1" stop-color="#0096D7"/>
</linearGradient>
<linearGradient id="paint7_linear" x1="857.227" y1="147.406" x2="1151.95" y2="147.406" gradientUnits="userSpaceOnUse">
<stop stop-color="#7668AE"/>
<stop offset="1" stop-color="#0096D7"/>
</linearGradient>
<linearGradient id="paint8_linear" x1="1395.49" y1="271.043" x2="1690.21" y2="271.043" gradientUnits="userSpaceOnUse">
<stop stop-color="#7668AE"/>
<stop offset="1" stop-color="#0096D7"/>
</linearGradient>
<linearGradient id="paint9_linear" x1="1319.87" y1="936.904" x2="1898" y2="936.904" gradientUnits="userSpaceOnUse">
<stop stop-color="#7668AE"/>
<stop offset="1" stop-color="#0096D7"/>
</linearGradient>
<linearGradient id="paint10_linear" x1="278.26" y1="227.172" x2="572.986" y2="227.172" gradientUnits="userSpaceOnUse">
<stop stop-color="#7668AE"/>
<stop offset="1" stop-color="#0096D7"/>
</linearGradient>
<linearGradient id="paint11_linear" x1="857.227" y1="1144.29" x2="956.904" y2="1144.29" gradientUnits="userSpaceOnUse">
<stop stop-color="#7668AE"/>
<stop offset="1" stop-color="#0096D7"/>
</linearGradient>
</defs>
</svg>
